<svg width="24" height="24" viewBox="0 0 24 24" fill="none" xmlns="http://www.w3.org/2000/svg">
<path d="M18.77 13.36C18.686 13.2587 18.5829 13.175 18.4666 13.1137C18.3503 13.0523 18.2229 13.0145 18.092 13.0025C17.961 12.9904 17.8289 13.0043 17.7033 13.0433C17.5777 13.0824 17.461 13.1458 17.36 13.23L13 16.86V5C13 4.73478 12.8946 4.48043 12.7071 4.29289C12.5196 4.10536 12.2652 4 12 4C11.7348 4 11.4804 4.10536 11.2929 4.29289C11.1054 4.48043 11 4.73478 11 5V16.86L6.64 13.23C6.53888 13.146 6.4222 13.0826 6.29661 13.0437C6.17103 13.0047 6.03901 12.9909 5.90807 13.003C5.77714 13.0151 5.64987 13.0528 5.53353 13.1141C5.41718 13.1753 5.31404 13.2589 5.23 13.36C5.14595 13.4611 5.08265 13.5778 5.04369 13.7034C5.00474 13.829 4.99091 13.961 5.00298 14.0919C5.01505 14.2229 5.05279 14.3501 5.11405 14.4665C5.17531 14.5828 5.25888 14.686 5.36 14.77L11.36 19.77L11.51 19.86L11.64 19.93C11.8717 20.0194 12.1283 20.0194 12.36 19.93L12.49 19.86L12.64 19.77L18.64 14.77C18.7413 14.6861 18.825 14.583 18.8863 14.4666C18.9477 14.3503 18.9855 14.2229 18.9975 14.092C19.0096 13.961 18.9957 13.8289 18.9567 13.7033C18.9176 13.5777 18.8542 13.461 18.77 13.36V13.36Z" fill="#404040"/>
</svg>
