<svg width="24" height="24" viewBox="0 0 24 24" fill="none" xmlns="http://www.w3.org/2000/svg">
<path d="M5.22999 10.64C5.31394 10.7412 5.41704 10.8249 5.53339 10.8863C5.64973 10.9476 5.77704 10.9854 5.90802 10.9975C6.039 11.0096 6.17107 10.9957 6.29667 10.9567C6.42228 10.9176 6.53894 10.8542 6.63999 10.77L11 7.13998V19C11 19.2652 11.1053 19.5195 11.2929 19.7071C11.4804 19.8946 11.7348 20 12 20C12.2652 20 12.5196 19.8946 12.7071 19.7071C12.8946 19.5195 13 19.2652 13 19V7.13998L17.36 10.77C17.4611 10.854 17.5778 10.9173 17.7034 10.9563C17.829 10.9952 17.961 11.0091 18.0919 10.997C18.2228 10.9849 18.3501 10.9472 18.4665 10.8859C18.5828 10.8247 18.6859 10.7411 18.77 10.64C18.854 10.5389 18.9173 10.4222 18.9563 10.2966C18.9952 10.171 19.0091 10.039 18.997 9.90805C18.9849 9.77712 18.9472 9.64985 18.8859 9.53351C18.8247 9.41716 18.7411 9.31402 18.64 9.22998L12.64 4.22998L12.49 4.13998L12.36 4.06998C12.1283 3.98058 11.8717 3.98058 11.64 4.06998L11.51 4.13998L11.36 4.22998L5.35999 9.22998C5.25873 9.31393 5.17503 9.41703 5.11368 9.53337C5.05233 9.64972 5.01453 9.77703 5.00245 9.90801C4.99038 10.039 5.00426 10.1711 5.0433 10.2967C5.08235 10.4223 5.14579 10.5389 5.22999 10.64V10.64Z" fill="#404040"/>
</svg>
