<svg width="24" height="24" viewBox="0 0 24 24" fill="none" xmlns="http://www.w3.org/2000/svg">
<path d="M12 13.5C12.8284 13.5 13.5 12.8284 13.5 12C13.5 11.1716 12.8284 10.5 12 10.5C11.1716 10.5 10.5 11.1716 10.5 12C10.5 12.8284 11.1716 13.5 12 13.5Z" fill="#404040"/>
<path d="M20.32 9.37H19.23C19.09 9.37 18.99 9.26 18.93 9.11C18.8943 9.05491 18.8753 8.99066 18.8753 8.925C18.8753 8.85934 18.8943 8.79509 18.93 8.74L19.74 8C19.8987 7.8473 20.0249 7.66401 20.1108 7.4612C20.1968 7.25839 20.2407 7.04027 20.24 6.82C20.2398 6.59839 20.1955 6.37905 20.1096 6.17474C20.0238 5.97043 19.8981 5.78526 19.74 5.63L18.4 4.26C18.2448 4.10368 18.0602 3.97962 17.8568 3.89497C17.6534 3.81031 17.4353 3.76672 17.215 3.76672C16.9947 3.76672 16.7766 3.81031 16.5732 3.89497C16.3698 3.97962 16.1852 4.10368 16.03 4.26L15.26 5C15.1988 5.0392 15.1277 5.06004 15.055 5.06004C14.9823 5.06004 14.9112 5.0392 14.85 5C14.7896 4.97748 14.7369 4.93827 14.6979 4.88692C14.659 4.83558 14.6354 4.77422 14.63 4.71V3.68C14.6302 3.24297 14.4601 2.82306 14.1557 2.50939C13.8514 2.19573 13.4368 2.01301 13 2H11.06C10.6135 1.99999 10.1852 2.17667 9.86851 2.49145C9.55186 2.80623 9.37264 3.23352 9.37 3.68V4.77C9.37 4.91 9.26 5.01 9.11 5.07C9.05491 5.10573 8.99066 5.12474 8.925 5.12474C8.85934 5.12474 8.79509 5.10573 8.74 5.07L8 4.26C7.68328 3.94517 7.25653 3.76586 6.81 3.76C6.58991 3.76043 6.37212 3.80489 6.16947 3.89076C5.96682 3.97663 5.7834 4.10217 5.63 4.26L4.26 5.6C4.09911 5.75571 3.97118 5.94219 3.88381 6.14834C3.79644 6.35449 3.75142 6.5761 3.75142 6.8C3.75142 7.0239 3.79644 7.24551 3.88381 7.45166C3.97118 7.65781 4.09911 7.84429 4.26 8L5 8.74C5.0392 8.80119 5.06004 8.87233 5.06004 8.945C5.06004 9.01767 5.0392 9.08881 5 9.15C4.97748 9.21038 4.93827 9.26313 4.88692 9.30208C4.83558 9.34103 4.77422 9.36458 4.71 9.37H3.68C3.23444 9.37 2.80712 9.547 2.49206 9.86206C2.177 10.1771 2 10.6044 2 11.05V12.94C1.99999 13.3865 2.17667 13.8148 2.49145 14.1315C2.80623 14.4481 3.23352 14.6274 3.68 14.63H4.77C4.91 14.63 5.01 14.74 5.07 14.89C5.10573 14.9451 5.12474 15.0093 5.12474 15.075C5.12474 15.1407 5.10573 15.2049 5.07 15.26L4.26 16C3.94517 16.3167 3.76586 16.7435 3.76 17.19C3.75966 17.4117 3.80372 17.6312 3.8896 17.8356C3.97547 18.04 4.10142 18.2251 4.26 18.38L5.6 19.74C5.75522 19.8963 5.93984 20.0204 6.14322 20.105C6.34659 20.1897 6.56471 20.2333 6.785 20.2333C7.00529 20.2333 7.22341 20.1897 7.42678 20.105C7.63016 20.0204 7.81478 19.8963 7.97 19.74L8.74 19C8.80119 18.9608 8.87233 18.94 8.945 18.94C9.01767 18.94 9.08881 18.9608 9.15 19C9.21038 19.0225 9.26313 19.0617 9.30208 19.1131C9.34103 19.1644 9.36458 19.2258 9.37 19.29V20.38C9.38555 20.8151 9.56939 21.2271 9.88278 21.5293C10.1962 21.8315 10.6146 22.0003 11.05 22H12.94C13.3865 22 13.8148 21.8233 14.1315 21.5086C14.4481 21.1938 14.6274 20.7665 14.63 20.32V19.23C14.63 19.09 14.74 18.99 14.89 18.93C14.9451 18.8943 15.0093 18.8753 15.075 18.8753C15.1407 18.8753 15.2049 18.8943 15.26 18.93L16.02 19.7C16.3367 20.0148 16.7635 20.1941 17.21 20.2C17.4301 20.1996 17.6479 20.1551 17.8505 20.0692C18.0532 19.9834 18.2366 19.8578 18.39 19.7L19.73 18.36C19.8863 18.2048 20.0104 18.0202 20.095 17.8168C20.1797 17.6134 20.2233 17.3953 20.2233 17.175C20.2233 16.9547 20.1797 16.7366 20.095 16.5332C20.0104 16.3298 19.8863 16.1452 19.73 15.99L19 15.26C18.9643 15.2049 18.9453 15.1407 18.9453 15.075C18.9453 15.0093 18.9643 14.9451 19 14.89C19.0225 14.8296 19.0617 14.7769 19.1131 14.7379C19.1644 14.699 19.2258 14.6754 19.29 14.67H20.38C20.8134 14.6545 21.2239 14.4721 21.5259 14.1608C21.8278 13.8496 21.9977 13.4336 22 13V11.06C22 10.6135 21.8233 10.1852 21.5086 9.86851C21.1938 9.55186 20.7665 9.37264 20.32 9.37ZM12 15.5C11.3078 15.5 10.6311 15.2947 10.0555 14.9101C9.47993 14.5256 9.03133 13.9789 8.76642 13.3394C8.50151 12.6999 8.4322 11.9961 8.56725 11.3172C8.7023 10.6383 9.03564 10.0146 9.52513 9.52513C10.0146 9.03564 10.6383 8.7023 11.3172 8.56725C11.9961 8.4322 12.6999 8.50151 13.3394 8.76642C13.9789 9.03133 14.5256 9.47993 14.9101 10.0555C15.2947 10.6311 15.5 11.3078 15.5 12C15.5 12.9283 15.1313 13.8185 14.4749 14.4749C13.8185 15.1313 12.9283 15.5 12 15.5Z" fill="#404040"/>
</svg>
