<svg width="24" height="24" viewBox="0 0 24 24" fill="none" xmlns="http://www.w3.org/2000/svg">
<path d="M12 2C10.0222 2 8.08879 2.58649 6.4443 3.6853C4.79981 4.78412 3.51809 6.3459 2.76121 8.17317C2.00433 10.0004 1.8063 12.0111 2.19215 13.9509C2.578 15.8907 3.53041 17.6725 4.92894 19.0711C6.32746 20.4696 8.10929 21.422 10.0491 21.8079C11.9889 22.1937 13.9996 21.9957 15.8268 21.2388C17.6541 20.4819 19.2159 19.2002 20.3147 17.5557C21.4135 15.9112 22 13.9778 22 12C22 10.6868 21.7413 9.38642 21.2388 8.17317C20.7363 6.95991 19.9997 5.85752 19.0711 4.92893C18.1425 4.00035 17.0401 3.26375 15.8268 2.7612C14.6136 2.25866 13.3132 2 12 2ZM12 18C11.8022 18 11.6089 17.9414 11.4444 17.8315C11.28 17.7216 11.1518 17.5654 11.0761 17.3827C11.0004 17.2 10.9806 16.9989 11.0192 16.8049C11.0578 16.6109 11.153 16.4327 11.2929 16.2929C11.4328 16.153 11.6109 16.0578 11.8049 16.0192C11.9989 15.9806 12.2 16.0004 12.3827 16.0761C12.5654 16.1518 12.7216 16.28 12.8315 16.4444C12.9414 16.6089 13 16.8022 13 17C13 17.2652 12.8946 17.5196 12.7071 17.7071C12.5196 17.8946 12.2652 18 12 18ZM13 12.84V14C13 14.2652 12.8946 14.5196 12.7071 14.7071C12.5196 14.8946 12.2652 15 12 15C11.7348 15 11.4804 14.8946 11.2929 14.7071C11.1054 14.5196 11 14.2652 11 14V12C11 11.7348 11.1054 11.4804 11.2929 11.2929C11.4804 11.1054 11.7348 11 12 11C12.2967 11 12.5867 10.912 12.8334 10.7472C13.08 10.5824 13.2723 10.3481 13.3858 10.074C13.4994 9.79994 13.5291 9.49834 13.4712 9.20736C13.4133 8.91639 13.2704 8.64912 13.0607 8.43934C12.8509 8.22956 12.5836 8.0867 12.2926 8.02882C12.0017 7.97094 11.7001 8.00065 11.426 8.11418C11.1519 8.22771 10.9176 8.41997 10.7528 8.66665C10.588 8.91332 10.5 9.20333 10.5 9.5C10.5 9.76522 10.3946 10.0196 10.2071 10.2071C10.0196 10.3946 9.76522 10.5 9.5 10.5C9.23479 10.5 8.98043 10.3946 8.7929 10.2071C8.60536 10.0196 8.5 9.76522 8.5 9.5C8.49739 8.8503 8.67566 8.2127 9.01487 7.65857C9.35408 7.10445 9.84083 6.65568 10.4206 6.3625C11.0004 6.06933 11.6504 5.94332 12.2977 5.99859C12.9451 6.05386 13.5643 6.28823 14.086 6.67545C14.6077 7.06267 15.0113 7.58746 15.2517 8.19107C15.492 8.79467 15.5596 9.45327 15.4469 10.0931C15.3342 10.733 15.0456 11.3288 14.6134 11.814C14.1813 12.2991 13.6226 12.6544 13 12.84Z" fill="#404040"/>
</svg>
