<svg width="24" height="24" viewBox="0 0 24 24" fill="none" xmlns="http://www.w3.org/2000/svg">
<path d="M5.99997 21C5.82818 20.9995 5.65943 20.9547 5.50997 20.87C5.3555 20.7832 5.22688 20.6569 5.13727 20.504C5.04766 20.3511 5.00027 20.1772 4.99997 20V5.33C4.98645 4.73032 5.2098 4.14946 5.6216 3.71332C6.03341 3.27718 6.6005 3.02089 7.19997 3H16.8C17.3994 3.02089 17.9665 3.27718 18.3783 3.71332C18.7901 4.14946 19.0135 4.73032 19 5.33V20C18.9989 20.1745 18.9522 20.3457 18.8645 20.4966C18.7768 20.6475 18.6511 20.7727 18.5 20.86C18.3479 20.9478 18.1755 20.994 18 20.994C17.8244 20.994 17.652 20.9478 17.5 20.86L11.83 17.65L6.49997 20.85C6.34952 20.9434 6.17698 20.9951 5.99997 21Z" fill="#404040"/>
</svg>
