<svg width="24" height="24" viewBox="0 0 24 24" fill="none" xmlns="http://www.w3.org/2000/svg">
<path d="M4 8C4.55228 8 5 7.55228 5 7C5 6.44772 4.55228 6 4 6C3.44772 6 3 6.44772 3 7C3 7.55228 3.44772 8 4 8Z" fill="#404040"/>
<path d="M4 13C4.55228 13 5 12.5523 5 12C5 11.4477 4.55228 11 4 11C3.44772 11 3 11.4477 3 12C3 12.5523 3.44772 13 4 13Z" fill="#404040"/>
<path d="M4 18C4.55228 18 5 17.5523 5 17C5 16.4477 4.55228 16 4 16C3.44772 16 3 16.4477 3 17C3 17.5523 3.44772 18 4 18Z" fill="#404040"/>
<path d="M20.06 11H7.94C7.42085 11 7 11.4209 7 11.94V12.06C7 12.5791 7.42085 13 7.94 13H20.06C20.5791 13 21 12.5791 21 12.06V11.94C21 11.4209 20.5791 11 20.06 11Z" fill="#404040"/>
<path d="M20.06 16H7.94C7.42085 16 7 16.4209 7 16.94V17.06C7 17.5791 7.42085 18 7.94 18H20.06C20.5791 18 21 17.5791 21 17.06V16.94C21 16.4209 20.5791 16 20.06 16Z" fill="#404040"/>
<path d="M20.06 6H7.94C7.42085 6 7 6.42085 7 6.94V7.06C7 7.57915 7.42085 8 7.94 8H20.06C20.5791 8 21 7.57915 21 7.06V6.94C21 6.42085 20.5791 6 20.06 6Z" fill="#404040"/>
</svg>
