<svg width="24" height="24" viewBox="0 0 24 24" fill="none" xmlns="http://www.w3.org/2000/svg">
<path d="M18 15C17.7664 15.0004 17.5399 14.9191 17.36 14.77L12 10.29L6.63 14.61C6.52772 14.693 6.41002 14.7551 6.28368 14.7925C6.15734 14.8299 6.02485 14.842 5.89382 14.8281C5.76279 14.8142 5.63581 14.7745 5.52017 14.7113C5.40454 14.6481 5.30253 14.5627 5.22 14.46C5.13694 14.3577 5.07491 14.24 5.03747 14.1137C5.00004 13.9873 4.98795 13.8548 5.00189 13.7238C5.01583 13.5928 5.05552 13.4658 5.1187 13.3502C5.18187 13.2345 5.26728 13.1325 5.37 13.05L11.37 8.21998C11.5489 8.0729 11.7734 7.99249 12.005 7.99249C12.2366 7.99249 12.4611 8.0729 12.64 8.21998L18.64 13.22C18.7413 13.3039 18.825 13.407 18.8863 13.5234C18.9477 13.6397 18.9855 13.767 18.9975 13.898C19.0096 14.029 18.9957 14.1611 18.9567 14.2867C18.9176 14.4123 18.8542 14.5289 18.77 14.63C18.677 14.7447 18.5596 14.8374 18.4265 14.9013C18.2934 14.9653 18.1477 14.999 18 15Z" fill="#404040"/>
</svg>
