<svg width="24" height="24" viewBox="0 0 24 24" fill="none" xmlns="http://www.w3.org/2000/svg">
<path d="M18.7683 8.64284C18.8525 8.54171 18.9159 8.42495 18.9549 8.29925C18.994 8.17354 19.0079 8.04136 18.9958 7.91028C18.9837 7.7792 18.9459 7.65179 18.8846 7.53535C18.8232 7.41891 18.7395 7.31572 18.6383 7.2317L12.639 2.22767C12.4601 2.08047 12.2357 2 12.0041 2C11.7725 2 11.5481 2.08047 11.3692 2.22767L5.36996 7.06157C5.25395 7.15576 5.16051 7.27478 5.09649 7.40986C5.03247 7.54495 4.9995 7.69268 5.00001 7.8422C4.99936 8.03158 5.05242 8.21727 5.15301 8.37767C5.2536 8.53808 5.3976 8.66663 5.56828 8.74838C5.73895 8.83013 5.9293 8.86172 6.11721 8.8395C6.30511 8.81728 6.48286 8.74214 6.6298 8.62283L11.9991 4.28933L17.3684 8.77295C17.5719 8.94003 17.833 9.02007 18.0951 8.99571C18.3571 8.97135 18.599 8.84456 18.7683 8.64284V8.64284Z" fill="#404040"/>
<path d="M12.0106 19.7121L6.6411 15.2313C6.43691 15.0615 6.17365 14.9798 5.90925 15.0042C5.64484 15.0286 5.40095 15.1571 5.23123 15.3613C5.06151 15.5656 4.97985 15.8289 5.00423 16.0934C5.02861 16.3578 5.15702 16.6018 5.36122 16.7716L11.3607 21.7725C11.5396 21.9196 11.764 22 11.9956 22C12.2272 22 12.4516 21.9196 12.6306 21.7725L18.63 16.9416C18.746 16.8475 18.8395 16.7285 18.9035 16.5935C18.9675 16.4585 19.0005 16.3109 19 16.1615C19.0006 15.9722 18.9476 15.7866 18.847 15.6263C18.7464 15.466 18.6024 15.3375 18.4317 15.2558C18.261 15.1741 18.0707 15.1426 17.8828 15.1648C17.6948 15.187 17.5171 15.2621 17.3701 15.3813L12.0106 19.7121Z" fill="#404040"/>
</svg>
