<svg width="24" height="24" viewBox="0 0 24 24" fill="none" xmlns="http://www.w3.org/2000/svg">
<path d="M18 3H6C5.39599 3.00358 4.80712 3.1894 4.31045 3.53315C3.81379 3.8769 3.43245 4.36257 3.21634 4.92661C3.00024 5.49065 2.95942 6.10679 3.09925 6.6944C3.23907 7.28202 3.55301 7.81374 4 8.22V18C4 18.7956 4.31607 19.5587 4.87868 20.1213C5.44129 20.6839 6.20435 21 7 21H17C17.7956 21 18.5587 20.6839 19.1213 20.1213C19.6839 19.5587 20 18.7956 20 18V8.22C20.447 7.81374 20.7609 7.28202 20.9008 6.6944C21.0406 6.10679 20.9998 5.49065 20.7837 4.92661C20.5675 4.36257 20.1862 3.8769 19.6895 3.53315C19.1929 3.1894 18.604 3.00358 18 3ZM15 13.13C15 13.3607 14.9083 13.582 14.7452 13.7452C14.582 13.9083 14.3607 14 14.13 14H9.87C9.63926 14 9.41797 13.9083 9.25482 13.7452C9.09166 13.582 9 13.3607 9 13.13V12.87C9 12.6393 9.09166 12.418 9.25482 12.2548C9.41797 12.0917 9.63926 12 9.87 12H14.13C14.3607 12 14.582 12.0917 14.7452 12.2548C14.9083 12.418 15 12.6393 15 12.87V13.13ZM18 7H6C5.73478 7 5.48043 6.89464 5.29289 6.70711C5.10536 6.51957 5 6.26522 5 6C5 5.73478 5.10536 5.48043 5.29289 5.29289C5.48043 5.10536 5.73478 5 6 5H18C18.2652 5 18.5196 5.10536 18.7071 5.29289C18.8946 5.48043 19 5.73478 19 6C19 6.26522 18.8946 6.51957 18.7071 6.70711C18.5196 6.89464 18.2652 7 18 7Z" fill="#404040"/>
</svg>
