<svg width="24" height="24" viewBox="0 0 24 24" fill="none" xmlns="http://www.w3.org/2000/svg">
<path d="M12 16C11.7663 16.0004 11.5399 15.9191 11.36 15.77L5.36 10.77C5.15578 10.6002 5.02736 10.3563 5.00298 10.0919C4.9786 9.82747 5.06026 9.56419 5.23 9.35997C5.39974 9.15575 5.64365 9.02733 5.90808 9.00295C6.1725 8.97857 6.43578 9.06023 6.64 9.22997L12 13.71L17.36 9.38997C17.4623 9.3069 17.58 9.24487 17.7063 9.20744C17.8327 9.17001 17.9652 9.15792 18.0962 9.17186C18.2272 9.18579 18.3542 9.22549 18.4698 9.28866C18.5855 9.35184 18.6875 9.43724 18.77 9.53997C18.8616 9.64279 18.9309 9.76342 18.9737 9.89429C19.0165 10.0252 19.0318 10.1635 19.0187 10.3005C19.0055 10.4376 18.9642 10.5705 18.8974 10.6908C18.8305 10.8112 18.7395 10.9164 18.63 11L12.63 15.83C12.4449 15.9555 12.2231 16.0153 12 16V16Z" fill="#404040"/>
</svg>
