<svg width="24" height="24" viewBox="0 0 24 24" fill="none" xmlns="http://www.w3.org/2000/svg">
<path d="M17.81 13.39C19.5704 11.944 20.7116 9.87983 21 7.62C21.0158 7.48868 21.0055 7.35554 20.9698 7.22818C20.9341 7.10083 20.8737 6.98175 20.792 6.87775C20.7102 6.77375 20.6088 6.68686 20.4936 6.62205C20.3783 6.55723 20.2513 6.51576 20.12 6.5C19.9887 6.48424 19.8555 6.49451 19.7282 6.5302C19.6008 6.5659 19.4818 6.62633 19.3777 6.70804C19.2737 6.78976 19.1869 6.89116 19.122 7.00645C19.0572 7.12175 19.0158 7.24868 19 7.38C18.7609 9.06629 17.9212 10.6096 16.6351 11.7262C15.3491 12.8428 13.7032 13.4576 12 13.4576C10.2969 13.4576 8.65095 12.8428 7.36489 11.7262C6.07884 10.6096 5.23907 9.06629 5 7.38C4.98424 7.24868 4.94277 7.12175 4.87796 7.00645C4.81315 6.89116 4.72626 6.78976 4.62226 6.70804C4.51826 6.62633 4.39918 6.5659 4.27182 6.5302C4.14446 6.49451 4.01132 6.48424 3.88 6.5C3.74868 6.51576 3.62175 6.55723 3.50645 6.62205C3.39116 6.68686 3.28976 6.77375 3.20804 6.87775C3.12633 6.98175 3.0659 7.10083 3.0302 7.22818C2.99451 7.35554 2.98424 7.48868 3 7.62C3.28584 9.87835 4.42333 11.9423 6.18 13.39L3.88 15.71C3.71618 15.9013 3.63057 16.1474 3.64029 16.3991C3.65001 16.6507 3.75434 16.8895 3.93244 17.0676C4.11053 17.2457 4.34927 17.35 4.60095 17.3597C4.85263 17.3694 5.0987 17.2838 5.29 17.12L7.9 14.52C8.86981 15.0101 9.91986 15.3217 11 15.44V19C11 19.2652 11.1054 19.5196 11.2929 19.7071C11.4804 19.8946 11.7348 20 12 20C12.2652 20 12.5196 19.8946 12.7071 19.7071C12.8946 19.5196 13 19.2652 13 19V15.44C14.0801 15.3217 15.1302 15.0101 16.1 14.52L18.71 17.12C18.9013 17.2838 19.1474 17.3694 19.3991 17.3597C19.6507 17.35 19.8895 17.2457 20.0676 17.0676C20.2457 16.8895 20.35 16.6507 20.3597 16.3991C20.3694 16.1474 20.2838 15.9013 20.12 15.71L17.81 13.39Z" fill="#404040"/>
</svg>
