<svg width="24" height="24" viewBox="0 0 24 24" fill="none" xmlns="http://www.w3.org/2000/svg">
<path d="M21 6.00001H16V4.33001C15.9765 3.68982 15.7002 3.08506 15.2316 2.6483C14.7629 2.21153 14.1402 1.9784 13.5 2.00001H10.5C9.85975 1.9784 9.23706 2.21153 8.76843 2.6483C8.2998 3.08506 8.02346 3.68982 8 4.33001V6.00001H3C2.73478 6.00001 2.48043 6.10536 2.29289 6.2929C2.10536 6.48043 2 6.73479 2 7.00001C2 7.26522 2.10536 7.51958 2.29289 7.70711C2.48043 7.89465 2.73478 8.00001 3 8.00001H4V19C4 19.7957 4.31607 20.5587 4.87868 21.1213C5.44129 21.6839 6.20435 22 7 22H17C17.7956 22 18.5587 21.6839 19.1213 21.1213C19.6839 20.5587 20 19.7957 20 19V8.00001H21C21.2652 8.00001 21.5196 7.89465 21.7071 7.70711C21.8946 7.51958 22 7.26522 22 7.00001C22 6.73479 21.8946 6.48043 21.7071 6.2929C21.5196 6.10536 21.2652 6.00001 21 6.00001ZM10 16C10 16.2652 9.89464 16.5196 9.70711 16.7071C9.51957 16.8946 9.26522 17 9 17C8.73478 17 8.48043 16.8946 8.29289 16.7071C8.10536 16.5196 8 16.2652 8 16V12C8 11.7348 8.10536 11.4804 8.29289 11.2929C8.48043 11.1054 8.73478 11 9 11C9.26522 11 9.51957 11.1054 9.70711 11.2929C9.89464 11.4804 10 11.7348 10 12V16ZM10 4.33001C10 4.17001 10.21 4.00001 10.5 4.00001H13.5C13.79 4.00001 14 4.17001 14 4.33001V6.00001H10V4.33001ZM16 16C16 16.2652 15.8946 16.5196 15.7071 16.7071C15.5196 16.8946 15.2652 17 15 17C14.7348 17 14.4804 16.8946 14.2929 16.7071C14.1054 16.5196 14 16.2652 14 16V12C14 11.7348 14.1054 11.4804 14.2929 11.2929C14.4804 11.1054 14.7348 11 15 11C15.2652 11 15.5196 11.1054 15.7071 11.2929C15.8946 11.4804 16 11.7348 16 12V16Z" fill="#404040"/>
</svg>
