<svg width="24" height="24" viewBox="0 0 24 24" fill="none" xmlns="http://www.w3.org/2000/svg">
<path d="M19 9.00001C18.3811 9.00175 17.7778 9.19489 17.2729 9.55295C16.7681 9.91101 16.3863 10.4165 16.18 11H3C2.73478 11 2.48043 11.1054 2.29289 11.2929C2.10536 11.4804 2 11.7348 2 12C2 12.2652 2.10536 12.5196 2.29289 12.7071C2.48043 12.8947 2.73478 13 3 13H16.18C16.3635 13.5189 16.6861 13.9773 17.1126 14.3251C17.5392 14.6729 18.0532 14.8966 18.5984 14.9718C19.1435 15.0471 19.6989 14.9709 20.2037 14.7516C20.7085 14.5323 21.1432 14.1784 21.4603 13.7286C21.7775 13.2788 21.9647 12.7504 22.0017 12.2013C22.0386 11.6522 21.9238 11.1035 21.6697 10.6153C21.4157 10.1271 21.0323 9.71813 20.5614 9.43324C20.0905 9.14834 19.5504 8.99847 19 9.00001Z" fill="#404040"/>
<path d="M3 7.00001H4.18C4.3902 7.57916 4.77363 8.07955 5.27817 8.43316C5.7827 8.78678 6.38388 8.97648 7 8.97648C7.61612 8.97648 8.2173 8.78678 8.72184 8.43316C9.22637 8.07955 9.6098 7.57916 9.82 7.00001H21C21.2652 7.00001 21.5196 6.89465 21.7071 6.70711C21.8946 6.51958 22 6.26522 22 6.00001C22 5.73479 21.8946 5.48044 21.7071 5.2929C21.5196 5.10536 21.2652 5.00001 21 5.00001H9.82C9.6098 4.42085 9.22637 3.92047 8.72184 3.56685C8.2173 3.21323 7.61612 3.02353 7 3.02353C6.38388 3.02353 5.7827 3.21323 5.27817 3.56685C4.77363 3.92047 4.3902 4.42085 4.18 5.00001H3C2.73478 5.00001 2.48043 5.10536 2.29289 5.2929C2.10536 5.48044 2 5.73479 2 6.00001C2 6.26522 2.10536 6.51958 2.29289 6.70711C2.48043 6.89465 2.73478 7.00001 3 7.00001Z" fill="#404040"/>
<path d="M21 17H13.82C13.6098 16.4209 13.2264 15.9205 12.7218 15.5668C12.2173 15.2132 11.6161 15.0235 11 15.0235C10.3839 15.0235 9.7827 15.2132 9.27816 15.5668C8.77363 15.9205 8.3902 16.4209 8.18 17H3C2.73478 17 2.48043 17.1054 2.29289 17.2929C2.10536 17.4804 2 17.7348 2 18C2 18.2652 2.10536 18.5196 2.29289 18.7071C2.48043 18.8946 2.73478 19 3 19H8.18C8.3902 19.5792 8.77363 20.0795 9.27816 20.4332C9.7827 20.7868 10.3839 20.9765 11 20.9765C11.6161 20.9765 12.2173 20.7868 12.7218 20.4332C13.2264 20.0795 13.6098 19.5792 13.82 19H21C21.2652 19 21.5196 18.8946 21.7071 18.7071C21.8946 18.5196 22 18.2652 22 18C22 17.7348 21.8946 17.4804 21.7071 17.2929C21.5196 17.1054 21.2652 17 21 17Z" fill="#404040"/>
</svg>
