<svg width="24" height="24" viewBox="0 0 24 24" fill="none" xmlns="http://www.w3.org/2000/svg">
<path d="M15.88 18.71L15.29 18.12L14 16.78L13.93 16.71L6.57998 9.40001L5.30998 8.14001C5.29976 8.33655 5.29976 8.53348 5.30998 8.73001V13.4L3.50998 15.21C3.28553 15.438 3.13268 15.7267 3.07027 16.0405C3.00785 16.3544 3.03859 16.6796 3.1587 16.9761C3.27881 17.2727 3.48305 17.5276 3.74624 17.7096C4.00944 17.8915 4.32011 17.9924 4.63998 18H7.99998V18.34C8.04669 19.3552 8.49393 20.3105 9.2437 20.9965C9.99348 21.6826 10.9846 22.0434 12 22C12.9446 22.0429 13.8723 21.7393 14.6089 21.1464C15.3454 20.5535 15.8401 19.712 16 18.78L15.88 18.71ZM14 18.34C13.9445 18.821 13.7056 19.2621 13.3331 19.5713C12.9605 19.8805 12.483 20.0341 12 20C11.517 20.0341 11.0395 19.8805 10.6669 19.5713C10.2943 19.2621 10.0554 18.821 9.99998 18.34V18H14V18.34Z" fill="#404040"/>
<path d="M7.13 4.29999L8.59 5.75999L18.12 15.29L20.12 17.29L20.43 17.59C20.626 17.429 20.7803 17.2232 20.88 16.99C21.0059 16.6922 21.0399 16.3636 20.9775 16.0464C20.9151 15.7292 20.7593 15.4379 20.53 15.21L18.73 13.4V8.93999C18.7536 7.28234 18.1761 5.67221 17.1043 4.40742C16.0326 3.14263 14.5391 2.30874 12.9 2.05999C11.9497 1.93269 10.9831 2.01051 10.0655 2.28824C9.14777 2.56596 8.30025 3.03712 7.58 3.66999C7.37645 3.8387 7.1828 4.019 7 4.20999L7.13 4.29999Z" fill="#404040"/>
<path d="M20.71 19.29L19.41 18L17.41 16L7.89 6.47L6.42 5L4.71 3.29C4.61676 3.19676 4.50607 3.1228 4.38425 3.07234C4.26243 3.02188 4.13186 2.99591 4 2.99591C3.86814 2.99591 3.73758 3.02188 3.61575 3.07234C3.49393 3.1228 3.38324 3.19676 3.29 3.29C3.1017 3.47831 2.99591 3.7337 2.99591 4C2.99591 4.2663 3.1017 4.5217 3.29 4.71L5.53 7L7.28 8.7L14.59 16L14.66 16.07L16 17.41L16.59 18L19.29 20.71C19.383 20.8037 19.4936 20.8781 19.6154 20.9289C19.7373 20.9797 19.868 21.0058 20 21.0058C20.132 21.0058 20.2627 20.9797 20.3846 20.9289C20.5064 20.8781 20.617 20.8037 20.71 20.71C20.8037 20.617 20.8781 20.5064 20.9289 20.3846C20.9797 20.2627 21.0058 20.132 21.0058 20C21.0058 19.868 20.9797 19.7373 20.9289 19.6154C20.8781 19.4936 20.8037 19.383 20.71 19.29Z" fill="#404040"/>
</svg>
