<svg width="24" height="24" viewBox="0 0 24 24" fill="none" xmlns="http://www.w3.org/2000/svg">
<path d="M19.5 20.5H4.5C3.84661 20.508 3.21666 20.2568 2.7481 19.8014C2.27953 19.3459 2.01053 18.7234 2 18.07V5.93C2.01053 5.27665 2.27953 4.65409 2.7481 4.19864C3.21666 3.7432 3.84661 3.49198 4.5 3.5H9.1C9.24771 3.50098 9.39336 3.53467 9.5265 3.59864C9.65964 3.66262 9.77695 3.75529 9.87 3.87L12.47 7.05H19.47C19.796 7.04204 20.1204 7.09872 20.4244 7.21678C20.7285 7.33485 21.0061 7.51194 21.2413 7.73786C21.4765 7.96378 21.6647 8.23404 21.7949 8.53306C21.9251 8.83207 21.9948 9.15391 22 9.48V18.07C21.9895 18.7234 21.7205 19.3459 21.2519 19.8014C20.7833 20.2568 20.1534 20.508 19.5 20.5Z" fill="#404040"/>
</svg>
